<svg width="100" height="100" viewBox="0 0 100 100" fill="none" xmlns="http://www.w3.org/2000/svg">
<path d="M56.2313 9.07011C55.8204 8.72138 55.3181 8.50285 54.7866 8.4416C54.255 8.38035 53.7176 8.47907 53.2408 8.72552C47.945 4.70438 43.8744 2.07056 43.5717 2.47017C43.2703 2.86609 46.7677 6.1389 51.9049 10.2679C51.6857 10.8934 51.6932 11.5767 51.9255 12.1965L51.1118 11.5017L49.861 13.0186L48.8656 12.1688C48.8032 12.1153 48.731 12.075 48.6533 12.0499C48.5755 12.0249 48.4937 12.0157 48.4125 12.0229C48.3313 12.03 48.2522 12.0534 48.1799 12.0917C48.1076 12.13 48.0434 12.1824 47.991 12.2459L47.0996 13.3269C46.8792 13.5941 46.9135 13.992 47.1762 14.2163L53.8751 19.9361C55.2298 21.781 54.9108 22.5579 55.2456 24.7641C54.075 25.7566 52.718 26.7728 51.5701 27.6725L43.8272 37.0623C43.574 37.3693 43.4511 37.7662 43.4855 38.1655C43.52 38.5648 43.7089 38.934 44.0107 39.1917C44.3126 39.4494 44.7026 39.5747 45.0951 39.5398C45.4876 39.505 45.8503 39.3129 46.1034 39.0059L49.8474 34.4656C52.969 30.6261 54.8477 29.6 59.3723 28.4281L60.1015 28.6284C58.2102 30.9221 59.6554 32.3909 61.432 34.7798L59.7806 33.3698C59.2781 32.9407 58.528 33.0073 58.106 33.519L53.5441 39.0512C53.1226 39.5624 53.1884 40.3256 53.691 40.7547L59.154 45.4194C59.6566 45.8485 60.4067 45.7819 60.8282 45.2707L65.3901 39.7385C65.8121 39.2268 65.7458 38.4641 65.2432 38.035L63.5936 36.6264C66.2149 37.9897 67.8858 39.1826 69.7767 36.8895L70.0972 37.5855C70.4461 42.6217 68.9116 44.5365 65.9085 48.1784L62.1646 52.7187C61.9114 53.0257 61.7885 53.4225 61.8229 53.8218C61.8574 54.2212 62.0463 54.5903 62.3481 54.8481C62.65 55.1058 63.04 55.231 63.4325 55.1962C63.825 55.1613 64.1877 54.9693 64.4408 54.6622L72.1833 45.273C72.9038 43.8226 73.6526 42.2975 74.4087 40.7983C76.5878 40.6274 77.2997 40.778 79.2595 41.6104L85.9692 47.3395C86.0953 47.4471 86.2582 47.4994 86.4221 47.4849C86.5861 47.4703 86.7376 47.3901 86.8433 47.2619L87.7347 46.1809C87.8404 46.0526 87.8918 45.8869 87.8774 45.7201C87.863 45.5533 87.7841 45.3991 87.658 45.2915L86.6621 44.4411L87.913 42.9242L87.0993 42.2294C87.7396 42.3549 88.4028 42.2435 88.9693 41.9152C93.8575 46.3463 97.6322 49.2827 97.963 48.9119C98.2972 48.5392 95.0409 44.9179 90.2301 40.3087C90.3802 39.8065 90.3875 39.2713 90.2513 38.7649C90.1151 38.2585 89.841 37.8016 89.4605 37.447C89.0799 37.0923 88.6086 36.8543 88.101 36.7606C87.5933 36.6668 87.07 36.7211 86.5915 36.9172C81.6584 32.4383 77.8246 29.4486 77.485 29.8166C77.1531 30.1866 80.3622 33.7629 85.1301 38.3354C84.9783 38.6713 84.8939 39.0347 84.8819 39.4043C84.8698 39.7739 84.9302 40.1422 85.0596 40.4879L84.2459 39.7931L82.9951 41.31C77.8738 36.9165 76.065 30.9025 70.5233 25.987C64.9859 21.4587 58.2644 20.1939 53.528 16.1497L54.7789 14.6328L53.9652 13.938C54.3222 14.0077 54.6892 14.0043 55.0447 13.928C55.4003 13.8517 55.7374 13.7041 56.0361 13.4937C61.2894 17.4776 65.3082 20.0719 65.6081 19.6756C65.9053 19.2714 62.3467 15.9481 57.1549 11.7829C57.2576 11.2882 57.2259 10.7742 57.063 10.2963C56.9002 9.81847 56.613 9.39418 56.2313 9.07011ZM61.3936 37.0586C62.6702 38.1486 62.8394 40.1116 61.7687 41.41C60.698 42.7084 58.7684 42.8803 57.4918 41.7903C56.2152 40.7003 56.0454 38.7358 57.1161 37.4374C58.1867 36.139 60.1165 35.9682 61.3936 37.0586ZM60.2486 38.4472C59.7101 37.9874 58.9335 38.0559 58.4818 38.6035C58.0302 39.1512 58.0988 39.9414 58.6373 40.4012C59.1758 40.8609 59.9513 40.7916 60.4029 40.2439C60.8546 39.6962 60.787 38.907 60.2486 38.4472Z" fill="white"/>
<path d="M8.97145 47.2576C6.92923 50.2571 5.70359 53.0493 5.37534 55.3241L7.99633 59.6586L11.1304 55.9536C11.2254 53.6055 10.5293 50.5653 8.97145 47.2571V47.2576ZM49.9381 47.5827C46.822 49.4014 44.5305 51.3878 43.2659 53.2973L43.786 58.3547L48.1931 56.3691C49.276 54.2905 49.9382 51.245 49.9382 47.5827H49.9381ZM39.8923 50.6024C38.7806 52.931 38.0528 55.1232 37.6854 57.0575L39.6973 63.443L41.863 59.6517L41.1513 52.7643H41.1546C40.7632 52.0265 40.342 51.3053 39.8922 50.6024H39.8923ZM1.18732 54.3524C1.17363 56.9387 1.44933 59.2343 1.94007 61.1396L6.47025 66.0272L6.8124 61.6651L3.24027 55.7569L3.24355 55.7534C2.57711 55.2585 1.89114 54.7912 1.18732 54.3524ZM15.7325 55.5183C14.8111 55.9061 13.9489 56.3167 13.1492 56.7463L8.85167 61.8349L8.51291 66.1934L14.0354 61.8659C14.7703 60.1054 15.3591 57.9625 15.7325 55.5183ZM35.1365 57.9121C32.5061 64.3424 33.3671 68.7447 35.9985 69.9225L38.315 65.8683L36.1696 59.0675C35.835 58.6734 35.4904 58.2882 35.1362 57.912L35.1365 57.9121ZM51.1254 57.9363C50.6272 57.9332 50.1433 57.9456 49.6714 57.9673L43.6352 60.6862L41.4695 64.4808L48.2955 62.9692C49.7076 61.6996 51.1521 60.0219 52.528 57.9776C52.0508 57.9537 51.582 57.939 51.1252 57.9362L51.1254 57.9363ZM26.3702 58.9015C23.8256 61.4739 22.1184 63.9938 21.3851 66.1692L23.1847 70.9188L26.9314 67.847C27.4455 65.5552 27.3076 62.4389 26.3702 58.9015ZM0 63.0174C0.35913 69.9657 3.00902 73.5677 5.88513 73.4884L6.25126 68.8149L1.42677 63.6123C0.95626 63.4018 0.480443 63.2035 0 63.0174ZM15.6813 64.2765C15.0004 64.421 14.3248 64.5894 13.6557 64.7816L8.29392 68.9812L7.93129 73.6027C10.8319 74.434 14.1898 71.326 15.681 64.2766L15.6813 64.2765ZM17.4397 64.4495C16.9623 66.9883 16.8211 69.2938 16.9608 71.2573L20.5398 76.9027L21.6588 72.6755L19.2054 66.2068H19.2087C18.6431 65.5969 18.053 65.0106 17.4399 64.4495H17.4397ZM46.7184 65.4389L40.0873 66.9021L37.795 70.9148C40.0595 72.9289 44.4124 71.5828 48.7578 65.8643C48.083 65.6988 47.4028 65.5569 46.7184 65.4389ZM31.5333 68.265C30.5576 68.4775 29.6387 68.7255 28.7756 69.0019L23.6328 73.2116L22.5138 77.439L28.7208 74.1975C29.7602 72.6009 30.727 70.6011 31.5332 68.2651L31.5333 68.265ZM48.5181 71.0393C45.6878 73.2891 43.6955 75.5844 42.7118 77.6569L43.9403 82.5863L48.0221 79.9883C48.8023 77.7755 49.0333 74.6651 48.5181 71.0393ZM35.0133 71.9907C31.243 80.5776 28.5102 89.5978 28.1186 99.9998H30.1683C30.5579 89.9496 33.1873 81.245 36.8814 72.8313L35.0132 71.9906L35.0133 71.9907ZM14.7164 72.7552C13.8216 79.6567 15.78 83.6822 18.6238 84.1291L19.8249 79.6045L16.0131 73.5993C15.588 73.307 15.1556 73.0255 14.7163 72.7553L14.7164 72.7552ZM38.996 75.4707C38.2238 77.9329 37.8116 80.2052 37.7197 82.1713L40.6109 88.2146L42.219 84.1498L40.546 77.432H40.5525C40.0817 76.7847 39.5635 76.1303 38.9959 75.4709L38.996 75.4707ZM5.87834 75.6403C4.92971 83.8964 4.98818 92.0049 7.21281 100H9.34131C7.05547 92.1659 6.95836 84.1685 7.91093 75.879L5.87856 75.6403H5.87834ZM29.9083 76.8684C29.1842 76.8861 28.49 76.9281 27.8244 76.9929L21.799 80.144L20.6116 84.617C23.315 85.9708 27.1743 83.53 29.9081 76.8684H29.9083ZM52.542 80.9571C51.5487 81.0505 50.6079 81.1842 49.7193 81.3549L44.1182 84.9212L42.51 88.9789L49.0521 86.509C50.2718 85.0486 51.4668 83.1798 52.542 80.9571ZM35.318 83.3924C33.6178 90.1379 35.0885 94.3722 37.86 95.157L39.5812 90.8089L36.5052 84.3853C36.1296 84.0532 35.7331 83.7228 35.318 83.3924ZM18.2679 86.2256C16.8802 90.7899 15.8306 95.3631 15.3287 100H17.3886C17.882 95.603 18.8875 91.2297 20.2249 86.8307L18.2678 86.2255L18.2679 86.2256ZM47.8304 89.1762L41.4799 91.5769L39.7759 95.8802C42.3003 97.5514 46.419 95.5917 49.9175 89.3041C49.2235 89.2369 48.5273 89.1943 47.8304 89.1763V89.1762ZM37.2371 97.3294C37.032 98.1832 36.8884 99.0736 36.8368 100H38.8829C38.9322 99.2599 39.0526 98.5382 39.2252 97.8208L37.2373 97.3293L37.2371 97.3294Z" fill="#DCD41C"/>
</svg>
